<svg width="50" height="50" viewBox="0 0 50 50" fill="none" xmlns="http://www.w3.org/2000/svg">
<rect opacity="0.1" x="0.5" y="0.5" width="49" height="49" rx="24.5" fill="#7456FF" stroke="#0F0F0F"/>
<path d="M25.5 10C16.9362 10 10 16.8823 10 25.3794C10 32.1848 14.4369 37.9328 20.5981 39.9706C21.3731 40.1052 21.6637 39.6438 21.6637 39.2401C21.6637 38.8748 21.6444 37.6637 21.6444 36.3757C17.75 37.087 16.7425 35.4337 16.4325 34.5686C16.2581 34.1264 15.5025 32.7615 14.8438 32.3963C14.3012 32.1079 13.5262 31.3966 14.8244 31.3774C16.045 31.3582 16.9169 32.4924 17.2075 32.9538C18.6025 35.2799 20.8306 34.6263 21.7219 34.2226C21.8575 33.2229 22.2644 32.5501 22.71 32.1656C19.2612 31.7811 15.6575 30.4546 15.6575 24.572C15.6575 22.8995 16.2581 21.5153 17.2463 20.4388C17.0913 20.0543 16.5487 18.4779 17.4012 16.3632C17.4012 16.3632 18.6994 15.9595 21.6637 17.9396C22.9037 17.5936 24.2213 17.4206 25.5388 17.4206C26.8563 17.4206 28.1738 17.5936 29.4138 17.9396C32.3781 15.9403 33.6763 16.3632 33.6763 16.3632C34.5288 18.4779 33.9863 20.0543 33.8313 20.4388C34.8194 21.5153 35.42 22.8803 35.42 24.572C35.42 30.4738 31.7969 31.7811 28.3481 32.1656C28.91 32.6462 29.3944 33.5689 29.3944 35.0108C29.3944 37.0678 29.375 38.721 29.375 39.2401C29.375 39.6438 29.6656 40.1244 30.4406 39.9706C33.5181 38.9407 36.1924 36.9787 38.0868 34.361C39.9811 31.7434 41 28.602 41 25.3794C41 16.8823 34.0638 10 25.5 10Z" fill="#7456FF"/>
</svg>
